<svg width="151" height="128" viewBox="0 0 151 128" fill="none" xmlns="http://www.w3.org/2000/svg">
<path d="M77.7108 0.0055077C83.9444 -0.121574 89.2874 1.95215 93.7398 6.22669C98.1923 10.5012 100.482 15.7553 100.609 21.9889L85.6486 22.2939C85.6054 20.1744 84.851 18.4113 83.3855 17.0043C81.92 15.5974 80.1301 14.918 78.0158 14.9661C75.8964 15.0093 74.1332 15.7636 72.7263 17.2291C71.3193 18.6946 70.6399 20.4845 70.688 22.5988C70.7312 24.7183 71.4856 26.4814 72.9511 27.8884C74.4166 29.2953 76.2065 29.9747 78.3208 29.9266L149.383 28.4779L149.688 43.4385L78.6258 44.8872C72.3922 45.0143 67.0492 42.9405 62.5968 38.666C58.1443 34.3915 55.8545 29.1374 55.7275 22.9038C55.6004 16.6703 57.6741 11.3273 61.9486 6.87481C66.2232 2.42236 71.4772 0.13259 77.7108 0.0055077ZM150.298 73.3596L150.603 88.3201L49.6197 90.3789C46.3782 90.4449 43.7194 91.5593 41.6432 93.7219C39.567 95.8845 38.5619 98.5866 38.628 101.828C38.6941 105.069 39.8084 107.728 41.971 109.805C44.1337 111.881 46.8357 112.886 50.0772 112.82C53.3186 112.754 55.9774 111.639 58.0536 109.477C60.1299 107.314 61.1349 104.612 61.0688 101.371L76.0294 101.066C76.1794 108.421 73.7825 114.676 68.8388 119.831C63.8951 124.985 57.7429 127.635 50.3822 127.78C43.0266 127.93 36.7715 125.533 31.6169 120.59C26.4623 115.646 23.8125 109.494 23.6674 102.133C23.5175 94.7774 25.9143 88.5223 30.8581 83.3678C35.8018 78.2132 41.954 75.5634 49.3147 75.4183L150.298 73.3596ZM25.6538 16.0336L25.9588 30.9941C22.7174 31.0602 20.0586 32.1746 17.9823 34.3372C15.9061 36.4998 14.9011 39.2018 14.9672 42.4433C15.0333 45.6847 16.1476 48.3436 18.3102 50.4198C20.4728 52.496 23.1749 53.501 26.4163 53.435L149.841 50.9187L150.146 65.8793L26.7213 68.3955C19.3657 68.5455 13.1106 66.1486 7.95606 61.2049C2.80149 56.2612 0.15168 50.109 0.00660854 42.7483C-0.143348 35.3927 2.25352 29.1376 7.19723 23.983C12.1409 18.8284 18.2931 16.1786 25.6538 16.0336Z" fill="white"/>
</svg>
