<svg xmlns="http://www.w3.org/2000/svg" xmlns:xlink="http://www.w3.org/1999/xlink" width="40" zoomAndPan="magnify" viewBox="0 0 30 30.000001" height="40" preserveAspectRatio="xMidYMid meet" version="1.0"><defs><clipPath id="c9d27c6d0e"><path d="M 0.484375 3.023438 L 29.515625 3.023438 L 29.515625 26.246094 L 0.484375 26.246094 Z M 0.484375 3.023438 " clip-rule="nonzero"/></clipPath></defs><g clip-path="url(#c9d27c6d0e)"><path fill="#3f9837" d="M 20.101562 3.234375 C 20.632812 3.046875 21.199219 2.980469 21.753906 3.046875 C 22.3125 3.113281 22.851562 3.304688 23.320312 3.609375 L 23.523438 3.75 L 25.410156 5.160156 C 25.917969 5.535156 26.316406 6.039062 26.574219 6.617188 L 26.671875 6.867188 L 29.292969 14.226562 C 29.5 14.808594 29.476562 15.445312 29.234375 16.011719 C 28.992188 16.578125 28.542969 17.03125 27.980469 17.28125 L 27.808594 17.347656 L 27.613281 17.417969 C 27.613281 18.15625 27.394531 18.878906 26.976562 19.488281 C 26.5625 20.097656 25.96875 20.570312 25.28125 20.839844 C 24.59375 21.109375 23.839844 21.164062 23.121094 20.996094 C 22.402344 20.828125 21.75 20.449219 21.25 19.90625 L 21.101562 19.734375 L 13.800781 22.332031 C 13.804688 23.070312 13.582031 23.792969 13.164062 24.402344 C 12.75 25.011719 12.160156 25.484375 11.472656 25.753906 C 10.785156 26.023438 10.03125 26.078125 9.3125 25.910156 C 8.589844 25.742188 7.9375 25.363281 7.4375 24.820312 L 7.289062 24.648438 L 7.09375 24.71875 C 6.511719 24.925781 5.875 24.90625 5.308594 24.664062 C 4.742188 24.421875 4.289062 23.972656 4.039062 23.40625 L 3.972656 23.238281 L 0.695312 14.03125 C 0.382812 13.148438 0.417969 12.183594 0.792969 11.328125 C 1.171875 10.472656 1.859375 9.792969 2.71875 9.425781 L 2.921875 9.347656 Z M 23.539062 16.273438 C 23.230469 16.382812 22.984375 16.609375 22.84375 16.902344 C 22.703125 17.195312 22.6875 17.53125 22.796875 17.835938 C 22.90625 18.140625 23.128906 18.390625 23.421875 18.527344 C 23.714844 18.667969 24.050781 18.683594 24.355469 18.574219 C 24.660156 18.46875 24.910156 18.242188 25.050781 17.949219 C 25.191406 17.65625 25.207031 17.320312 25.097656 17.015625 C 24.988281 16.710938 24.765625 16.460938 24.472656 16.320312 C 24.179688 16.183594 23.84375 16.164062 23.539062 16.273438 Z M 9.726562 21.191406 C 9.421875 21.296875 9.171875 21.523438 9.035156 21.816406 C 8.894531 22.109375 8.878906 22.445312 8.984375 22.75 C 9.09375 23.054688 9.320312 23.304688 9.613281 23.445312 C 9.90625 23.582031 10.242188 23.601562 10.546875 23.492188 C 10.851562 23.382812 11.101562 23.15625 11.242188 22.863281 C 11.378906 22.570312 11.398438 22.234375 11.289062 21.929688 C 11.179688 21.625 10.953125 21.375 10.660156 21.238281 C 10.367188 21.097656 10.03125 21.082031 9.726562 21.191406 Z M 20.921875 5.535156 L 19.851562 5.917969 L 21.488281 10.519531 L 24.941406 9.292969 L 24.371094 7.6875 C 24.289062 7.460938 24.144531 7.261719 23.949219 7.117188 L 22.0625 5.707031 C 21.898438 5.585938 21.710938 5.507812 21.511719 5.480469 C 21.3125 5.449219 21.109375 5.46875 20.921875 5.535156 Z M 6.042969 10.832031 L 3.738281 11.652344 C 3.457031 11.75 3.222656 11.953125 3.078125 12.214844 C 2.933594 12.476562 2.890625 12.78125 2.957031 13.074219 L 3 13.210938 L 3.816406 15.511719 L 7.269531 14.285156 Z M 11.796875 8.785156 L 8.34375 10.011719 L 9.570312 13.464844 L 13.023438 12.238281 Z M 17.550781 6.734375 L 14.097656 7.964844 L 15.324219 11.417969 L 18.777344 10.1875 Z M 17.550781 6.734375 " fill-opacity="1" fill-rule="evenodd"/></g></svg>