<svg width="269" height="213" viewBox="0 0 269 213" fill="none" xmlns="http://www.w3.org/2000/svg">
<path fill-rule="evenodd" clip-rule="evenodd" d="M181.776 1.96762C186.682 0.220656 191.924 -0.374519 197.096 0.228132C202.269 0.830782 207.234 2.6151 211.606 5.44311L213.462 6.741L230.963 19.7949C235.656 23.2934 239.364 27.9455 241.729 33.2997L242.657 35.6366L266.924 103.819C268.84 109.198 268.653 115.104 266.398 120.351C264.144 125.599 259.989 129.8 254.768 132.113L253.187 132.736L251.374 133.381C251.389 140.227 249.334 146.918 245.48 152.577C241.626 158.235 236.152 162.596 229.775 165.089C223.399 167.582 216.418 168.09 209.748 166.546C203.078 165.002 197.03 161.479 192.397 156.438L191.02 154.862L123.403 178.928C123.414 185.771 121.358 192.459 117.504 198.114C113.65 203.769 108.178 208.129 101.804 210.621C95.4298 213.112 88.4519 213.621 81.7841 212.079C75.1163 210.538 69.0697 207.018 64.4364 201.981L63.0585 200.405L61.2458 201.05C55.8659 202.967 49.9603 202.779 44.7129 200.525C39.4655 198.271 35.2642 194.116 32.951 188.895L32.3284 187.314L1.96644 102.007C-0.938183 93.8471 -0.615001 84.886 2.86986 76.9568C6.35472 69.0276 12.7378 62.7299 20.7131 59.352L22.5709 58.6307L181.776 1.96762ZM213.606 122.795C210.778 123.801 208.466 125.89 207.178 128.602C205.89 131.313 205.732 134.425 206.738 137.253C207.745 140.082 209.834 142.394 212.545 143.682C215.257 144.97 218.369 145.128 221.197 144.122C224.025 143.115 226.338 141.026 227.626 138.315C228.914 135.603 229.072 132.491 228.065 129.663C227.059 126.835 224.97 124.522 222.258 123.234C219.547 121.946 216.435 121.788 213.606 122.795ZM85.6455 168.338C82.8174 169.344 80.505 171.433 79.2169 174.145C77.9289 176.856 77.7708 179.968 78.7773 182.796C79.7839 185.625 81.8727 187.937 84.5842 189.225C87.2958 190.513 90.4079 190.671 93.236 189.665C96.0641 188.658 98.3765 186.569 99.6646 183.858C100.953 181.146 101.111 178.034 100.104 175.206C99.0976 172.378 97.0088 170.065 94.2973 168.777C91.5857 167.489 88.4736 167.331 85.6455 168.338ZM189.366 23.2945L179.449 26.824L194.63 69.4777L226.62 58.0919L221.33 43.2271C220.581 41.1206 219.224 39.2831 217.432 37.9465L199.927 24.882C198.433 23.7687 196.688 23.0413 194.846 22.7644C193.003 22.4874 191.121 22.6695 189.366 23.2945ZM51.4883 72.367L30.1614 79.9575C27.5497 80.8875 25.3701 82.7436 24.0361 85.1738C22.702 87.604 22.3062 90.4394 22.9239 93.142L23.2933 94.4162L30.8838 115.743L62.874 104.357L51.4883 72.367ZM104.805 53.3908L72.8151 64.7765L84.2008 96.7668L116.191 85.381L104.805 53.3908ZM158.122 34.4145L126.132 45.8003L137.518 77.7905L169.508 66.4048L158.122 34.4145Z" fill="white"/>
</svg>
