<svg width="250" height="170" viewBox="0 0 250 170" fill="none" xmlns="http://www.w3.org/2000/svg">
<path fill-rule="evenodd" clip-rule="evenodd" d="M202.944 4.5173e-07C208.151 -0.000848924 213.289 1.19611 217.961 3.49831C222.632 5.80051 226.711 9.14625 229.882 13.2768L231.195 15.1217L243.306 33.2882C246.554 38.1576 248.488 43.7839 248.92 49.6211L249.011 52.1338V124.505C249.013 130.217 246.856 135.717 242.972 139.905C239.089 144.093 233.766 146.658 228.071 147.086L226.373 147.143H224.449C222.167 153.598 217.988 159.212 212.46 163.251C206.931 167.289 200.311 169.562 193.468 169.773C186.625 169.983 179.878 168.121 174.112 164.43C168.346 160.739 163.829 155.392 161.155 149.09L160.386 147.143H88.6139C86.33 153.594 82.1506 159.205 76.6234 163.241C71.0961 167.276 64.4788 169.548 57.6383 169.758C50.7979 169.969 44.0534 168.108 38.2885 164.42C32.5237 160.732 28.0073 155.388 25.3312 149.09L24.5615 147.143H22.6373C16.9262 147.145 11.4254 144.988 7.23775 141.104C3.05005 137.221 0.484928 131.898 0.0565934 126.203L5.275e-08 124.505V33.956C-0.000482421 25.2948 3.30873 16.9609 9.25057 10.6592C15.1924 4.35761 23.3177 0.564717 31.9639 0.0565951L33.956 4.5173e-07H202.944ZM192.417 124.505C189.415 124.505 186.537 125.698 184.414 127.821C182.291 129.943 181.099 132.822 181.099 135.824C181.099 138.826 182.291 141.705 184.414 143.828C186.537 145.95 189.415 147.143 192.417 147.143C195.419 147.143 198.298 145.95 200.421 143.828C202.544 141.705 203.736 138.826 203.736 135.824C203.736 132.822 202.544 129.943 200.421 127.821C198.298 125.698 195.419 124.505 192.417 124.505ZM56.5934 124.505C53.5915 124.505 50.7125 125.698 48.5898 127.821C46.4672 129.943 45.2747 132.822 45.2747 135.824C45.2747 138.826 46.4672 141.705 48.5898 143.828C50.7125 145.95 53.5915 147.143 56.5934 147.143C59.5952 147.143 62.4742 145.95 64.5969 143.828C66.7195 141.705 67.912 138.826 67.912 135.824C67.912 132.822 66.7195 129.943 64.5969 127.821C62.4742 125.698 59.5952 124.505 56.5934 124.505ZM202.944 22.6373H192.417V67.912H226.373V52.1338C226.374 49.898 225.712 47.7121 224.472 45.8519L212.361 27.6742C211.327 26.1244 209.926 24.8539 208.284 23.9753C206.641 23.0966 204.807 22.6371 202.944 22.6373ZM56.5934 22.6373H33.956C31.1837 22.6377 28.5079 23.6555 26.4362 25.4977C24.3645 27.34 23.0409 29.8784 22.7166 32.6317L22.6373 33.956V56.5934H56.5934V22.6373ZM113.187 22.6373H79.2307V56.5934H113.187V22.6373ZM169.78 22.6373H135.824V56.5934H169.78V22.6373Z" fill="#3F9837"/>
</svg>
