<svg width="185" height="165" viewBox="0 0 185 165" fill="none" xmlns="http://www.w3.org/2000/svg">
<path d="M19.3466 164.406H164.927C179.813 164.406 189.093 148.263 181.65 135.406L108.86 9.6425C101.417 -3.21417 82.8566 -3.21417 75.4133 9.6425L2.62326 135.406C-4.82008 148.263 4.45992 164.406 19.3466 164.406ZM92.1366 96.7392C86.8199 96.7392 82.4699 92.3892 82.4699 87.0725V67.7392C82.4699 62.4225 86.8199 58.0725 92.1366 58.0725C97.4533 58.0725 101.803 62.4225 101.803 67.7392V87.0725C101.803 92.3892 97.4533 96.7392 92.1366 96.7392ZM101.803 135.406H82.4699V116.073H101.803V135.406Z" fill="#3F9837"/>
</svg>
